<?xml version="1.0" encoding="utf-8" ?>
<svg baseProfile="tiny" height="100%" version="1.2" width="100%" xmlns="http://www.w3.org/2000/svg" xmlns:ev="http://www.w3.org/2001/xml-events" xmlns:xlink="http://www.w3.org/1999/xlink"><defs /><path d="M 251.0 77.0 L 250.5 77.5 L 250.0 77.5 L 249.5 78.0 L 247.0 78.0 L 246.5 78.5 L 246.0 78.5 L 245.5 79.0 L 245.0 79.0 L 244.5 79.5 L 244.0 79.0 L 243.5 79.0 L 242.5 80.0 L 240.5 80.0 L 239.5 81.0 L 238.5 81.0 L 237.5 82.0 L 236.5 82.0 L 235.5 83.0 L 234.5 83.0 L 233.0 84.5 L 232.5 84.5 L 232.0 85.0 L 231.5 85.0 L 223.0 93.5 L 223.0 94.0 L 222.0 95.0 L 222.0 95.5 L 220.0 97.5 L 220.0 98.5 L 219.0 99.5 L 219.0 100.0 L 218.5 100.5 L 218.5 101.0 L 217.0 102.5 L 217.0 103.5 L 216.0 104.5 L 216.0 105.0 L 215.5 105.5 L 215.5 106.0 L 214.0 107.5 L 214.0 108.0 L 213.5 108.5 L 213.5 109.0 L 212.0 110.5 L 212.0 111.5 L 211.0 112.5 L 211.0 113.5 L 210.0 114.5 L 210.0 115.0 L 209.5 115.5 L 209.5 116.0 L 208.0 117.5 L 208.0 118.5 L 207.0 119.5 L 207.0 120.5 L 206.0 121.5 L 206.0 122.0 L 205.5 122.5 L 205.5 123.0 L 204.0 124.5 L 204.0 125.5 L 203.0 126.5 L 203.0 127.5 L 202.0 128.5 L 202.0 129.0 L 201.0 130.0 L 201.0 130.5 L 200.0 131.5 L 200.0 132.5 L 199.0 133.5 L 199.0 134.0 L 198.5 134.5 L 198.5 135.0 L 197.0 136.5 L 197.0 137.5 L 196.0 138.5 L 196.0 139.0 L 195.5 139.5 L 195.5 140.0 L 195.0 140.5 L 195.0 141.0 L 194.5 141.5 L 194.5 142.0 L 193.0 143.5 L 193.0 144.5 L 192.0 145.5 L 192.0 146.0 L 191.5 146.5 L 191.5 147.0 L 190.5 148.0 L 190.5 148.5 L 190.0 149.0 L 190.0 149.5 L 189.0 150.5 L 189.0 151.5 L 188.0 152.5 L 188.0 153.0 L 187.5 153.5 L 187.5 154.0 L 186.0 155.5 L 186.0 156.5 L 184.5 158.0 L 184.5 158.5 L 184.0 159.0 L 184.0 159.5 L 183.0 160.5 L 183.0 161.5 L 182.0 162.5 L 182.0 163.0 L 181.5 163.5 L 181.5 164.0 L 180.0 165.5 L 180.0 166.5 L 179.0 167.5 L 179.0 168.5 L 178.0 169.5 L 178.0 170.0 L 177.5 170.5 L 177.5 171.0 L 176.5 172.0 L 176.5 172.5 L 176.0 173.0 L 176.0 173.5 L 175.0 174.5 L 175.0 175.5 L 174.0 176.5 L 174.0 177.0 L 173.5 177.5 L 173.5 178.0 L 172.0 179.5 L 172.0 180.5 L 171.0 181.5 L 171.0 182.0 L 170.5 182.5 L 170.5 183.0 L 169.0 184.5 L 169.0 185.5 L 168.0 186.5 L 168.0 187.0 L 167.5 187.5 L 167.5 188.0 L 166.0 189.5 L 166.0 190.5 L 165.0 191.5 L 165.0 192.0 L 164.5 192.5 L 164.5 193.0 L 163.5 194.0 L 163.5 195.0 L 162.5 196.0 L 162.5 196.5 L 162.0 197.0 L 162.0 197.5 L 161.0 198.5 L 161.0 199.5 L 160.0 200.5 L 160.0 201.0 L 159.5 201.5 L 159.5 202.0 L 158.0 203.5 L 158.0 204.5 L 157.0 205.5 L 157.0 206.0 L 156.0 207.0 L 156.0 207.5 L 155.0 208.5 L 155.0 209.5 L 154.0 210.5 L 154.0 211.0 L 153.5 211.5 L 153.5 212.0 L 152.0 213.5 L 152.0 214.5 L 151.0 215.5 L 151.0 216.5 L 150.0 217.5 L 150.0 218.0 L 149.5 218.5 L 149.5 219.0 L 148.0 220.5 L 148.0 221.5 L 147.0 222.5 L 147.0 223.5 L 146.0 224.5 L 146.0 225.0 L 145.0 226.0 L 145.0 226.5 L 144.0 227.5 L 144.0 228.5 L 143.0 229.5 L 143.0 230.0 L 142.5 230.5 L 142.5 231.0 L 141.0 232.5 L 141.0 233.5 L 140.0 234.5 L 140.0 235.0 L 139.5 235.5 L 139.5 236.0 L 138.5 237.0 L 138.5 237.5 L 138.0 238.0 L 138.0 238.5 L 137.0 239.5 L 137.0 240.0 L 136.5 240.5 L 136.5 241.0 L 135.5 242.0 L 135.5 243.0 L 134.0 244.5 L 134.0 245.5 L 133.0 246.5 L 133.0 247.0 L 132.5 247.5 L 132.5 248.0 L 131.0 249.5 L 131.0 250.5 L 130.0 251.5 L 130.0 252.0 L 129.5 252.5 L 129.5 253.0 L 128.0 254.5 L 128.0 255.5 L 127.0 256.5 L 127.0 257.0 L 126.5 257.5 L 126.5 258.0 L 125.0 259.5 L 125.0 260.5 L 124.0 261.5 L 124.0 262.5 L 123.0 263.5 L 123.0 264.5 L 122.0 265.5 L 122.0 266.0 L 121.5 266.5 L 121.5 267.0 L 120.0 268.5 L 120.0 269.5 L 119.0 270.5 L 119.0 271.0 L 118.5 271.5 L 118.5 272.0 L 117.0 273.5 L 117.0 274.0 L 116.5 274.5 L 116.5 275.0 L 116.0 275.5 L 116.0 276.0 L 115.5 276.5 L 115.5 277.0 L 114.5 278.0 L 114.5 278.5 L 114.0 279.0 L 114.0 279.5 L 113.0 280.5 L 113.0 281.5 L 112.0 282.5 L 112.0 283.0 L 111.5 283.5 L 111.5 284.0 L 110.0 285.5 L 110.0 286.5 L 109.0 287.5 L 109.0 288.0 L 108.0 289.0 L 108.0 289.5 L 107.0 290.5 L 107.0 291.5 L 106.0 292.5 L 106.0 293.5 L 105.0 294.5 L 105.0 295.0 L 104.0 296.0 L 104.0 296.5 L 103.0 297.5 L 103.0 298.5 L 101.0 300.5 L 101.0 301.5 L 100.0 302.5 L 100.0 303.5 L 99.0 304.5 L 99.0 305.0 L 98.5 305.5 L 98.5 306.0 L 98.0 306.5 L 98.0 307.0 L 97.5 307.5 L 97.5 308.0 L 96.0 309.5 L 96.0 310.5 L 95.0 311.5 L 95.0 312.5 L 94.0 313.5 L 94.0 314.0 L 93.5 314.5 L 93.5 315.0 L 92.0 316.5 L 92.0 317.5 L 91.0 318.5 L 91.0 319.0 L 90.5 319.5 L 90.5 320.0 L 90.0 320.5 L 90.0 321.0 L 89.0 322.0 L 89.0 322.5 L 88.0 323.5 L 88.0 324.0 L 87.5 324.5 L 87.5 325.0 L 87.0 325.5 L 87.0 326.0 L 86.5 326.5 L 86.5 327.0 L 85.0 328.5 L 85.0 329.0 L 84.5 329.5 L 84.5 330.0 L 84.0 330.5 L 84.0 331.0 L 83.5 331.5 L 83.5 332.0 L 82.5 333.0 L 82.5 333.5 L 82.0 334.0 L 82.0 334.5 L 81.0 335.5 L 81.0 336.0 L 80.5 336.5 L 80.5 337.0 L 79.5 338.0 L 79.5 338.5 L 79.0 339.0 L 79.0 339.5 L 78.0 340.5 L 78.0 341.5 L 76.0 343.5 L 76.0 344.5 L 75.0 345.5 L 75.0 346.0 L 74.5 346.5 L 74.5 347.0 L 73.0 348.5 L 73.0 349.5 L 72.0 350.5 L 72.0 351.5 L 71.5 352.0 L 71.5 352.5 L 71.0 353.0 L 71.0 354.5 L 70.0 355.5 L 70.0 357.5 L 69.0 358.5 L 69.0 361.5 L 68.5 362.0 L 68.5 362.5 L 68.0 363.0 L 68.0 365.0 L 68.5 365.5 L 68.5 371.5 L 68.0 372.0 L 68.0 375.0 L 68.5 375.5 L 68.5 376.0 L 69.0 376.5 L 69.0 379.5 L 69.5 380.0 L 69.5 380.5 L 70.0 381.0 L 70.0 383.0 L 70.5 383.5 L 70.5 384.0 L 71.0 384.5 L 71.0 386.0 L 71.5 386.5 L 71.5 387.0 L 72.0 387.5 L 72.0 388.0 L 72.5 388.5 L 72.5 389.0 L 73.0 389.5 L 73.0 390.0 L 73.5 390.5 L 73.5 391.0 L 74.0 391.5 L 74.0 392.0 L 75.0 393.0 L 75.0 393.5 L 75.5 394.0 L 75.5 394.5 L 77.0 396.0 L 77.0 396.5 L 78.0 397.5 L 78.0 398.0 L 83.5 403.5 L 84.0 403.5 L 85.5 405.0 L 86.0 405.0 L 87.5 406.5 L 88.0 406.5 L 88.5 407.0 L 89.0 407.0 L 90.0 408.0 L 90.5 408.0 L 91.0 408.5 L 91.5 408.5 L 92.0 409.0 L 93.0 409.0 L 93.5 409.5 L 94.0 409.5 L 94.5 410.0 L 95.0 410.0 L 95.5 410.5 L 96.5 410.5 L 97.0 411.0 L 98.0 411.0 L 98.5 411.5 L 99.5 411.5 L 100.0 412.0 L 102.0 412.0 L 102.5 412.5 L 104.0 412.5 L 104.5 413.0 L 110.0 413.0 L 110.5 413.5 L 401.5 413.5 L 402.0 413.0 L 406.5 413.0 L 407.0 412.5 L 408.5 412.5 L 409.0 412.0 L 411.0 412.0 L 411.5 411.5 L 413.0 411.5 L 413.5 411.0 L 414.5 411.0 L 415.0 410.5 L 416.0 410.5 L 416.5 410.0 L 417.5 410.0 L 418.0 409.5 L 418.5 409.5 L 419.0 409.0 L 419.5 409.0 L 420.0 408.5 L 420.5 408.5 L 421.0 408.0 L 421.5 408.0 L 422.0 407.5 L 422.5 407.5 L 423.5 406.5 L 424.0 406.5 L 425.0 405.5 L 425.5 405.5 L 427.0 404.0 L 427.5 404.0 L 429.5 402.0 L 430.0 402.0 L 433.0 399.0 L 433.0 398.5 L 435.0 396.5 L 435.0 396.0 L 436.0 395.0 L 436.0 394.5 L 437.0 393.5 L 437.0 393.0 L 438.0 392.0 L 438.0 391.5 L 438.5 391.0 L 438.5 390.5 L 439.0 390.0 L 439.0 389.5 L 439.5 389.0 L 439.5 388.5 L 440.0 388.0 L 440.0 387.5 L 440.5 387.0 L 440.5 386.5 L 441.0 386.0 L 441.0 385.0 L 441.5 384.5 L 441.5 383.5 L 442.0 383.0 L 442.0 381.5 L 442.5 381.0 L 442.5 380.0 L 443.0 379.5 L 443.0 377.0 L 443.5 376.5 L 443.5 374.5 L 444.0 374.0 L 444.0 363.0 L 443.5 362.5 L 443.5 361.0 L 443.0 360.5 L 443.0 358.5 L 442.5 358.0 L 442.5 357.0 L 442.0 356.5 L 442.0 355.0 L 441.5 354.5 L 441.5 354.0 L 441.0 353.5 L 441.0 352.5 L 440.5 352.0 L 440.5 351.5 L 440.0 351.0 L 440.0 350.5 L 439.5 350.0 L 439.5 349.5 L 439.0 349.0 L 439.0 348.5 L 438.5 348.0 L 438.5 347.5 L 438.0 347.0 L 438.0 346.5 L 437.5 346.0 L 437.5 345.5 L 437.0 345.0 L 437.0 344.5 L 436.0 343.5 L 436.0 343.0 L 435.5 342.5 L 435.5 342.0 L 434.5 341.0 L 434.5 340.5 L 434.0 340.0 L 434.0 339.5 L 433.0 338.5 L 433.0 338.0 L 432.5 337.5 L 432.5 337.0 L 432.0 336.5 L 432.0 336.0 L 431.0 335.0 L 431.0 334.5 L 430.5 334.0 L 430.5 333.5 L 429.5 332.5 L 429.5 332.0 L 429.0 331.5 L 429.0 331.0 L 428.0 330.0 L 428.0 329.5 L 427.5 329.0 L 427.5 328.5 L 426.5 327.5 L 426.5 327.0 L 426.0 326.5 L 426.0 326.0 L 425.5 325.5 L 425.5 325.0 L 424.5 324.0 L 424.5 323.5 L 424.0 323.0 L 424.0 322.5 L 423.5 322.0 L 423.5 321.5 L 422.5 320.5 L 422.5 320.0 L 422.0 319.5 L 422.0 319.0 L 421.0 318.0 L 421.0 317.5 L 420.5 317.0 L 420.5 316.5 L 419.5 315.5 L 419.5 315.0 L 419.0 314.5 L 419.0 314.0 L 418.0 313.0 L 418.0 312.5 L 417.5 312.0 L 417.5 311.5 L 417.0 311.0 L 417.0 310.5 L 416.0 309.5 L 416.0 309.0 L 415.5 308.5 L 415.5 308.0 L 414.5 307.0 L 414.5 306.5 L 414.0 306.0 L 414.0 305.5 L 413.5 305.0 L 413.5 304.5 L 412.5 303.5 L 412.5 303.0 L 412.0 302.5 L 412.0 302.0 L 411.0 301.0 L 411.0 300.5 L 410.5 300.0 L 410.5 299.5 L 409.5 298.5 L 409.5 298.0 L 409.0 297.5 L 409.0 297.0 L 408.5 296.5 L 408.5 296.0 L 407.5 295.0 L 407.5 294.5 L 407.0 294.0 L 407.0 293.5 L 406.0 292.5 L 406.0 292.0 L 405.5 291.5 L 405.5 291.0 L 405.0 290.5 L 405.0 290.0 L 404.0 289.0 L 404.0 288.5 L 403.5 288.0 L 403.5 287.5 L 402.5 286.5 L 402.5 286.0 L 402.0 285.5 L 402.0 285.0 L 401.0 284.0 L 401.0 283.5 L 400.5 283.0 L 400.5 282.5 L 399.5 281.5 L 399.5 281.0 L 399.0 280.5 L 399.0 280.0 L 398.5 279.5 L 398.5 279.0 L 397.5 278.0 L 397.5 277.5 L 397.0 277.0 L 397.0 276.5 L 396.5 276.0 L 396.5 275.5 L 395.5 274.5 L 395.5 274.0 L 395.0 273.5 L 395.0 273.0 L 394.0 272.0 L 394.0 271.5 L 393.5 271.0 L 393.5 270.5 L 393.0 270.0 L 393.0 269.5 L 392.0 268.5 L 392.0 268.0 L 391.5 267.5 L 391.5 267.0 L 390.5 266.0 L 390.5 265.5 L 390.0 265.0 L 390.0 264.5 L 389.0 263.5 L 389.0 263.0 L 388.5 262.5 L 388.5 262.0 L 387.5 261.0 L 387.5 260.5 L 387.0 260.0 L 387.0 259.5 L 386.5 259.0 L 386.5 258.5 L 385.5 257.5 L 385.5 257.0 L 385.0 256.5 L 385.0 256.0 L 384.5 255.5 L 384.5 255.0 L 383.5 254.0 L 383.5 253.5 L 382.5 252.5 L 382.5 252.0 L 382.0 251.5 L 382.0 251.0 L 381.5 250.5 L 381.5 250.0 L 381.0 249.5 L 381.0 249.0 L 380.0 248.0 L 380.0 247.5 L 379.5 247.0 L 379.5 246.5 L 378.5 245.5 L 378.5 245.0 L 378.0 244.5 L 378.0 244.0 L 377.0 243.0 L 377.0 242.5 L 376.5 242.0 L 376.5 241.5 L 376.0 241.0 L 376.0 240.5 L 375.5 240.0 L 375.5 239.5 L 374.5 238.5 L 374.5 238.0 L 374.0 237.5 L 374.0 237.0 L 373.0 236.0 L 373.0 235.5 L 372.5 235.0 L 372.5 234.5 L 371.5 233.5 L 371.5 233.0 L 370.5 232.0 L 370.5 231.5 L 370.0 231.0 L 370.0 230.5 L 369.5 230.0 L 369.5 229.5 L 368.5 228.5 L 368.5 228.0 L 368.0 227.5 L 368.0 227.0 L 367.5 226.5 L 367.5 226.0 L 366.5 225.0 L 366.5 224.5 L 366.0 224.0 L 366.0 223.5 L 365.5 223.0 L 365.5 222.5 L 364.5 221.5 L 364.5 221.0 L 364.0 220.5 L 364.0 220.0 L 363.0 219.0 L 363.0 218.5 L 362.5 218.0 L 362.5 217.5 L 361.5 216.5 L 361.5 216.0 L 361.0 215.5 L 361.0 215.0 L 360.0 214.0 L 360.0 213.5 L 359.5 213.0 L 359.5 212.5 L 358.5 211.5 L 358.5 211.0 L 358.0 210.5 L 358.0 210.0 L 357.5 209.5 L 357.5 209.0 L 357.0 208.5 L 357.0 208.0 L 356.0 207.0 L 356.0 206.5 L 355.5 206.0 L 355.5 205.5 L 354.5 204.5 L 354.5 204.0 L 354.0 203.5 L 354.0 203.0 L 353.0 202.0 L 353.0 201.5 L 352.5 201.0 L 352.5 200.5 L 351.5 199.5 L 351.5 199.0 L 351.0 198.5 L 351.0 198.0 L 350.0 197.0 L 350.0 196.5 L 349.5 196.0 L 349.5 195.5 L 349.0 195.0 L 349.0 194.5 L 348.5 194.0 L 348.5 193.5 L 347.5 192.5 L 347.5 192.0 L 347.0 191.5 L 347.0 191.0 L 346.0 190.0 L 346.0 189.5 L 345.5 189.0 L 345.5 188.5 L 344.5 187.5 L 344.5 187.0 L 344.0 186.5 L 344.0 186.0 L 343.0 185.0 L 343.0 184.5 L 342.5 184.0 L 342.5 183.5 L 342.0 183.0 L 342.0 182.5 L 341.0 181.5 L 341.0 181.0 L 340.5 180.5 L 340.5 180.0 L 340.0 179.5 L 340.0 179.0 L 339.0 178.0 L 339.0 177.5 L 338.5 177.0 L 338.5 176.5 L 338.0 176.0 L 338.0 175.5 L 337.5 175.0 L 337.5 174.5 L 336.5 173.5 L 336.5 173.0 L 336.0 172.5 L 336.0 172.0 L 335.0 171.0 L 335.0 170.5 L 334.5 170.0 L 334.5 169.5 L 333.5 168.5 L 333.5 168.0 L 333.0 167.5 L 333.0 167.0 L 332.0 166.0 L 332.0 165.5 L 331.5 165.0 L 331.5 164.5 L 330.5 163.5 L 330.5 163.0 L 330.0 162.5 L 330.0 162.0 L 329.5 161.5 L 329.5 161.0 L 329.0 160.5 L 329.0 160.0 L 328.0 159.0 L 328.0 158.5 L 327.5 158.0 L 327.5 157.5 L 326.5 156.5 L 326.5 156.0 L 326.0 155.5 L 326.0 155.0 L 325.0 154.0 L 325.0 153.5 L 324.5 153.0 L 324.5 152.5 L 324.0 152.0 L 324.0 151.5 L 323.0 150.5 L 323.0 150.0 L 322.5 149.5 L 322.5 149.0 L 321.5 148.0 L 321.5 147.5 L 321.0 147.0 L 321.0 146.5 L 320.5 146.0 L 320.5 145.5 L 319.5 144.5 L 319.5 144.0 L 319.0 143.5 L 319.0 143.0 L 318.0 142.0 L 318.0 141.5 L 317.5 141.0 L 317.5 140.5 L 316.5 139.5 L 316.5 139.0 L 316.0 138.5 L 316.0 138.0 L 315.0 137.0 L 315.0 136.5 L 314.5 136.0 L 314.5 135.5 L 314.0 135.0 L 314.0 134.5 L 313.0 133.5 L 313.0 133.0 L 312.5 132.5 L 312.5 132.0 L 312.0 131.5 L 312.0 131.0 L 311.0 130.0 L 311.0 129.5 L 310.5 129.0 L 310.5 128.5 L 309.5 127.5 L 309.5 127.0 L 309.0 126.5 L 309.0 126.0 L 308.5 125.5 L 308.5 125.0 L 307.5 124.0 L 307.5 123.5 L 306.5 122.5 L 306.5 122.0 L 306.0 121.5 L 306.0 121.0 L 305.5 120.5 L 305.5 120.0 L 304.5 119.0 L 304.5 118.5 L 304.0 118.0 L 304.0 117.5 L 303.5 117.0 L 303.5 116.5 L 302.5 115.5 L 302.5 115.0 L 302.0 114.5 L 302.0 114.0 L 301.0 113.0 L 301.0 112.5 L 300.5 112.0 L 300.5 111.5 L 299.5 110.5 L 299.5 110.0 L 299.0 109.5 L 299.0 109.0 L 298.5 108.5 L 298.5 108.0 L 297.5 107.0 L 297.5 106.5 L 297.0 106.0 L 297.0 105.5 L 296.0 104.5 L 296.0 104.0 L 295.5 103.5 L 295.5 103.0 L 295.0 102.5 L 295.0 102.0 L 294.0 101.0 L 294.0 100.5 L 293.5 100.0 L 293.5 99.5 L 292.5 98.5 L 292.5 98.0 L 292.0 97.5 L 292.0 97.0 L 290.5 95.5 L 290.5 95.0 L 289.5 94.0 L 289.5 93.5 L 286.5 90.5 L 286.5 90.0 L 286.0 90.0 L 285.5 89.5 L 285.5 89.0 L 285.0 89.0 L 281.0 85.0 L 280.5 85.0 L 279.5 84.0 L 279.0 84.0 L 278.0 83.0 L 277.0 83.0 L 276.0 82.0 L 275.0 82.0 L 274.0 81.0 L 273.0 81.0 L 272.5 80.5 L 272.0 80.5 L 271.5 80.0 L 270.5 80.0 L 270.0 79.5 L 269.5 79.5 L 269.0 79.0 L 267.5 79.0 L 267.0 78.5 L 266.5 78.5 L 266.0 78.0 L 262.5 78.0 L 262.0 77.5 L 261.5 77.5 L 261.0 77.0 Z" fill="#1D4A6C" /></svg>